<?xml version="1.0" standalone="no"?>
<!DOCTYPE svg PUBLIC "-//W3C//DTD SVG 20010904//EN"
 "http://www.w3.org/TR/2001/REC-SVG-20010904/DTD/svg10.dtd">
<svg version="1.0" xmlns="http://www.w3.org/2000/svg"
 width="700.000000pt" height="700.000000pt" viewBox="0 0 700.000000 700.000000"
 preserveAspectRatio="xMidYMid meet">
<metadata>
Created by potrace 1.11, written by Peter Selinger 2001-2013
</metadata>
<g transform="translate(0.000000,700.000000) scale(0.100000,-0.100000)"
fill="#000000" stroke="none">
<path d="M975 6564 c-38 -8 -113 -36 -165 -61 -79 -38 -108 -59 -181 -132 -73
-73 -94 -102 -132 -181 -83 -173 -77 43 -77 -2620 0 -2663 -6 -2447 77 -2620
38 -79 59 -108 132 -181 73 -73 102 -94 181 -132 173 -83 -52 -77 2690 -77
2742 0 2517 -6 2690 77 79 38 108 59 181 132 73 73 94 102 132 181 83 173 77
-43 77 2620 0 2663 6 2447 -77 2620 -38 79 -59 108 -132 181 -73 73 -102 94
-181 132 -173 83 53 77 -2697 76 -2115 -1 -2458 -3 -2518 -15z m5052 -290
c114 -47 212 -148 250 -257 17 -50 18 -167 18 -2447 0 -2280 -1 -2397 -18
-2447 -39 -113 -147 -221 -260 -260 -50 -17 -170 -18 -2517 -18 -2347 0 -2467
1 -2517 18 -109 38 -210 136 -257 250 l-21 52 -3 2370 c-1 1580 1 2388 8 2425
29 158 166 299 320 329 25 5 1120 8 2495 7 l2450 -1 52 -21z"/>
<path d="M3240 5730 c-706 -67 -1322 -338 -1868 -822 -100 -88 -111 -101 -100
-117 7 -10 189 -242 403 -514 l390 -497 1435 0 1435 0 390 497 c214 272 396
504 403 514 11 16 -1 29 -104 121 -506 449 -1074 712 -1736 803 -135 19 -515
27 -648 15z m120 -485 l0 -205 140 0 140 0 0 206 0 207 93 -7 c123 -9 316 -41
457 -77 111 -27 302 -88 334 -106 12 -7 5 -30 -44 -149 l-58 -142 23 -10 c105
-48 228 -93 235 -86 5 5 32 65 61 134 28 69 53 127 55 129 13 14 352 -199 489
-307 l74 -59 -281 -356 -280 -357 -559 0 c-441 0 -559 3 -559 13 0 6 54 225
119 485 65 259 117 472 116 472 -1 0 -166 -218 -366 -485 l-364 -485 -491 0
-492 0 -280 357 -281 356 74 59 c138 108 476 321 489 307 2 -2 28 -62 57 -132
29 -71 58 -131 64 -133 6 -3 65 18 132 46 l121 51 -58 142 c-49 120 -56 143
-44 150 31 18 223 79 334 106 165 42 376 75 503 79 l47 2 0 -205z"/>
</g>
</svg>
