<?xml version="1.0"?>
<svg xmlns="http://www.w3.org/2000/svg" viewBox="0 0 50 50">
    <path d="M 8 3 C 5.2504839 3 3 5.2504839 3 8 L 3 41 C 3 43.749516 5.2504839 46 8 46 L 42 46 C 44.749516 46 47 43.749516 47 41 L 47 8 C 47 5.2504839 44.749516 3 42 3 L 8 3 z M 8 5 L 42 5 C 43.668484 5 45 6.3315161 45 8 L 45 41 C 45 42.668484 43.668484 44 42 44 L 8 44 C 6.3315161 44 5 42.668484 5 41 L 5 8 C 5 6.3315161 6.3315161 5 8 5 z M 25 9 C 18.81 9 13.196 11.548594 9 15.683594 L 14.761719 23 L 35.238281 23 L 41 15.683594 C 36.804 11.548594 31.19 9 25 9 z M 24 11.044922 L 24 14 L 26 14 L 26 11.044922 C 28.217356 11.154878 30.38343 11.623606 32.435547 12.433594 L 31.582031 14.492188 L 33.431641 15.257812 L 34.259766 13.259766 C 35.674759 13.983437 37.026687 14.858668 38.277344 15.908203 L 34.267578 21 L 26.25 21 L 28 14 L 22.75 21 L 15.732422 21 L 11.722656 15.908203 C 12.973313 14.858668 14.325241 13.983437 15.740234 13.259766 L 16.568359 15.259766 L 18.417969 14.494141 L 17.564453 12.433594 C 19.61657 11.623606 21.782644 11.154878 24 11.044922 z"/>
</svg>
